# xmcd
#
# Track frame offsets:
#	150
#	67896
#	90757
#	122119
#	161490
#	184514
#	196323
#
# Disc length: 2797 seconds
#
# Revision: 0
# Processed by: cddbd v1.5.2PL0 Copyright (c) Steve Scherf et al.
# Submitted via: audiograbber 1.83.01
#
DISCID=4c0aeb07
DTITLE=Grateful Dead - 93-09-25 Boston Garden, Boston MA
DYEAR=1900
DGENRE=
TTITLE0=Space
TTITLE1=The Wheel
TTITLE2=All Along The Watchtower
TTITLE3=Black Peter
TTITLE4=One More Saturday Night
TTITLE5=Crowd and Tuning
TTITLE6=I Fought The Law
EXTD=
EXTT0=
EXTT1=
EXTT2=
EXTT3=
EXTT4=
EXTT5=
EXTT6=
PLAYORDER=
